<?xml version="1.0" encoding="UTF-8"?>
<svg id="Layer_1" xmlns="http://www.w3.org/2000/svg" viewBox="0 0 101.87 98.67">
  <path d="M52.45,15.74c7.41-.3,13.5,3.07,19.23,7.15,3.81,2.71,3.85,6.97,3.42,11.11-.39,3.74-1.18,7.42-2.93,10.82-.6,1.17-.66,2.35-.6,3.64.35,6.55.89,13.11.36,19.68-.22,2.8-.45,5.6-.61,8.41-.11,1.89-.13,4.17-2.77,4.5-1.73.22-3.98-2.09-4.35-4.31-.28-1.7-.08-3.52-.63-5.11-1.53-4.45-2.55-9-3.56-13.58-.71-3.22-2.93-5.86-5.03-8.39-1.27-1.53-3.78-1.45-5.5.12-2.87,2.63-5.12,5.7-6.14,9.54-.63,2.34-1.29,4.67-1.91,7.02-.58,2.16-1.49,4.11-3.33,5.52-.98.75-1.34,1.89-1.74,3-.77,2.14-1.53,4.29-3.08,6.02-.71.8-1.4,1.84-2.73,1.35-1.3-.48-1.92-1.53-2.11-2.87-.17-1.2.2-2.33.49-3.46.76-2.98,1.36-5.94.55-9.03-.21-.79-.09-1.73.09-2.55,1.26-5.74,1.09-11.53.22-17.27-.56-3.69-2.27-7.12-2.96-10.83-.71-3.75.02-6.97,2.49-9.83.77-.89,1.54-1.78,2.24-2.72,5.28-7.07,13.05-7.61,20.88-7.93Z"/>
</svg>