<?xml version="1.0" encoding="UTF-8"?>
<svg id="Layer_1" xmlns="http://www.w3.org/2000/svg" viewBox="0 0 101.87 98.67">
  <path d="M75.25,36.46c.05,3.22-.16,6.41-.6,9.6-.45,3.33-1.53,6.15-4.12,8.64-2.77,2.66-4.25,6.05-2.54,10.21,1.31,3.17,2.19,6.53,2.04,10.05-.07,1.55-.3,3.11-1.92,3.72-1.72.65-2.81-.65-3.73-1.8-2.35-2.97-3.4-6.5-3.94-10.17-.66-4.48-2.7-8.3-5.5-11.75-1.11-1.36-6.56-2.67-8.09-1.98-.78.35-1.05,1.16-1.31,1.87-.99,2.65-2.31,5.14-3.63,7.62-.62,1.15-.72,2.37-.69,3.64.06,2.74.17,5.48-.36,8.19-.11.54-.17,1.09-.35,1.6-.56,1.59-1.18,3.16-3.29,3.09-2.03-.07-2.78-1.48-3.24-3.17-.6-2.24-.54-4.52-.18-6.76.46-2.94.14-5.76-.72-8.56-.42-1.38-1.06-2.55-2.22-3.49-1.97-1.6-2.97-3.59-3.07-6.27-.21-5.31-1.01-10.59-1.15-15.9-.24-8.85,5.03-15.48,13.72-17.57,1.73-.41,2.62-1.11,3.14-2.87,1.2-4.01,4.78-6.52,8.8-6.54,4-.01,7.9,2.72,8.98,6.67.46,1.7,1.25,2.35,2.88,2.34.46,0,.92.17,1.38.26,7.12,1.32,8.86,3.31,9.2,10.44.14,2.97.35,5.93.52,8.9Z"/>
</svg>