<?xml version="1.0" encoding="UTF-8"?>
<svg id="Layer_1" xmlns="http://www.w3.org/2000/svg" viewBox="0 0 101.87 98.67">
  <path d="M54.82,20.74c2.98,1.56,5.55,3.51,6.71,6.86.38,1.1,1.46,1.33,2.39,1.71,3.66,1.46,6.85,3.65,10.09,5.89,5.35,3.7,4.3,16.19-.03,19.29-2.71,1.94-3.81,4.64-4.45,7.7-.26,1.22-.56,2.44-.97,3.62-.63,1.83-1.87,3.08-3.87,3.33-1.96.25-3.49-.58-4.71-2.09-1.4-1.74-1.66-3.86-1.93-5.95-.29-2.26-1.36-3.33-3.71-3.24-3.13.11-6.26.14-9.39.04-1.72-.05-2.39.69-2.58,2.27-.27,2.18-.78,4.31-1.91,6.24-1.32,2.26-3.17,3.17-5.69,2.81-2.41-.34-3.35-2.07-3.91-4.14-.16-.6-.29-1.22-.35-1.84-.4-4.54-2.3-8.13-5.74-11.3-4.54-4.19-4.34-8.62-.26-13.46,3.21-3.81,7.16-6.52,11.91-7.99,2.74-.85,5.09-1.72,6.21-4.89.91-2.59,3.56-3.82,6.07-4.85h6.11Z"/>
</svg>