<?xml version="1.0" encoding="UTF-8"?>
<svg id="Layer_1" xmlns="http://www.w3.org/2000/svg" viewBox="0 0 101.87 98.67">
  <path d="M71.84,34.25c-.69,6.46-1.78,13.04-3.96,19.32-1.39,4-4.8,6.9-7.36,10.25-.28.37-.58.74-.88,1.1q-2.07,2.58.63,4.31c1.32.85,2.69,1.64,3.67,2.9,2.34,3,1.01,6.41-2.74,6.94-2.32.33-4.51-.33-6.65-1.11-1.4-.51-2.71-1.24-4.13-1.7-5.41-1.74-9.86-4.52-12.17-10.07-.54-1.3-1.62-3.34-3.42-2.27-1.84,1.1-.47,2.98.17,4.4.82,1.81,2.38,2.78,4.31,3.32,3.14.88,4.78,6.4,2.7,8.88-.51.61-1.22.69-1.93.66-3.6-.15-6.96-.95-9.69-3.55-3.92-3.74-6.88-8.12-8.76-13.18-1.71-4.6-.69-9,1.67-13.06,2.86-4.93,5.57-10,9.97-13.85.67-.58,1.1-1.31,1.23-2.21.9-5.9,4.75-8.88,10.28-9.67,2.98-.43,5.29-1.39,7.09-3.82.77-1.05,1.85-1.92,2.91-2.72,5.68-4.28,12.59-2.23,15.36,4.35,1.45,3.44,1.25,7.05,1.7,10.77Z"/>
</svg>