<?xml version="1.0" encoding="UTF-8"?>
<svg id="Layer_1" xmlns="http://www.w3.org/2000/svg" viewBox="0 0 101.87 98.67">
  <path d="M31.82,59.63c.63,1.42,1.96,2.13,2.7,3.29.5.79.7,1.21-.66,1.5-1.97.41-3.36-.27-4.57-1.57-2.97-3.18-5.48-6.53-5.68-11.23-.15-3.5-.78-6.99-1.4-10.46-2.06-11.7,2.83-19.98,12.8-25.44,3.46-1.89,5.96-4.06,7.96-7.57,3.48-6.11,11.66-6.6,16.42-1.42.78.85,1.54,1.15,2.64,1.1,1.32-.06,2.67-.04,3.97.18,4.04.66,6.68,4.2,6.27,8.28-.33,3.33-2.08,6.02-3.92,8.66-1.39,1.99-2.82,3.94-4.18,5.94-1.65,2.42-2.5,5.08-3.09,7.99-2.45,12.26-1.34,24.65-1.7,36.99-.03,1.15.39,2.11.99,3.07,1.51,2.38,2.93,4.82,3.94,7.46.42,1.1.81,2.23.74,3.42-.13,2.14-.72,4.15-2.98,4.86-2.27.72-3.87-.51-5.13-2.34-2.24-3.28-3.45-7.01-4.63-10.74-.36-1.13-.72-2.06-2.13-2.06-1.3,0-1.41-.98-1.51-1.95-.97-8.87-1.97-17.73-2.91-26.6-.32-3.05-.26-3.05-3.06-2.31-4.04,1.07-7.93.77-11.53-1.48-1.35-.85-1.75-.44-1.94.95-.36,2.56.19,4.8,1.96,6.73,1.06,1.15,2.04,2.38,3.04,3.58.39.47,1.01,1.08.59,1.63-.51.66-1.1-.04-1.61-.35-.34-.2-.67-.41-1.4-.1Z"/>
</svg>