<?xml version="1.0" encoding="UTF-8"?>
<svg id="Layer_1" xmlns="http://www.w3.org/2000/svg" viewBox="0 0 101.87 98.67">
  <path d="M68.51,66.45c-.28-.02-1.09.16-1.67-.13-5.36-2.72-10.4.05-15.52.88-3.4.55-6.6,1.75-9.69,3.39-3.92,2.08-8.39.95-11.12-2.52-1.26-1.6-2.75-2.66-4.67-3.35-3.88-1.4-5.51-4.53-4.62-8.54.14-.61.34-1.21.43-1.82,1.3-8.3,6.71-13.35,13.69-17.03,2.02-1.07,3.02-2.17,2.92-4.63-.17-4.24,2.58-7.83,6.59-9.33,3.82-1.43,8.34-.56,10.96,2.55,1.42,1.69,2.73,1.84,4.68,1.35,3.78-.96,7.58-2.06,11.56-1,1.68.44,3.27,1.06,4.74,1.99,4,2.53,4.85,7.18,1.86,10.86-1.09,1.35-1.28,2.79-1.27,4.38.03,4.85.12,9.7.07,14.54-.06,5.83-2.74,8.43-8.96,8.44Z"/>
</svg>