<?xml version="1.0" encoding="UTF-8"?>
<svg id="Layer_1" xmlns="http://www.w3.org/2000/svg" viewBox="0 0 101.87 98.67">
  <path d="M21.75,39.49c.9-2.32,2.74-3.61,4.81-4.88,4.71-2.89,9.52-5.4,15.02-6.41,1.08-.2,2.1-.64,3-1.29,4.99-3.56,10.54-3.52,16.23-2.5.46.08.93.21,1.35.41,6.88,3.35,14.57,4.42,21.53,7.6,3.03,1.39,5.48,5.27,4.81,9.57-.84,5.43-2.73,10.08-8.84,12.09-3,.98-5.5,3.51-8.2,5.36-.65.45-.66,1.2-.67,1.91-.02,1.02.03,2.05-.13,3.04-.23,1.48-.92,2.71-2.54,3.02-1.63.31-2.89-.55-3.39-1.93-.69-1.88-1.75-1.84-3.25-1.23-4.13,1.67-8.26,1.61-12.33-.17-2.01-.88-3.32-.54-4.26,1.62-.66,1.51-1.86,2.9-3.83,2.43-1.81-.44-2.65-2.19-2.36-3.64,1.08-5.47-3.42-7.15-6.59-8.56-4.71-2.08-7.78-5.3-10.34-9.41v-7.04Z"/>
</svg>