<?xml version="1.0" encoding="UTF-8"?>
<svg id="Layer_1" xmlns="http://www.w3.org/2000/svg" viewBox="0 0 100 100">
  <defs>
    <style>
      .cls-1 {
        fill: none;
        stroke: #20201f;
        stroke-miterlimit: 10;
        stroke-width: .25px;
      }
    </style>
  </defs>
  <path class="cls-1" d="M68.71,34.27c.53.19,1.07.38,1.6.58.17.09.35.17.52.26,2.83,2.21,5.99,4.11,8.43,6.69,4.86,5.13,2.92,12.94-3.9,15.97-2.36,1.05-5.12,1.21-7.7,1.76-.34.07-.69.1-1.03.14-1.2.47-2.4.94-3.6,1.42-.93.37-2.22.52-2.66,1.21-.33.53.42,1.74.68,2.65.08.3.12.6.18.9-.41-.83-.72-1.73-1.26-2.48-.27-.37-.94-.65-1.42-.63-.86.04-1.7.33-2.55.51-.03-.92-.06-1.85-.1-2.77.62-.49,1.32-.92,1.85-1.49.44-.47.69-1.11,1.02-1.67.52-.41,1.24-.72,1.53-1.26,3.19-5.78,3.2-11.66.39-17.58-1.23-1.53-2.45-3.05-3.68-4.58,3.19-.03,6.38-.06,9.57-.1.36.06.72.12,1.08.18.2.03.4.06.61.09.14.06.28.12.42.18Z"/>
  <path class="cls-1" d="M30.33,59.68c-2.61-.46-5.36-.56-7.8-1.46-5.58-2.07-8.27-6.86-7.18-12.09.68-3.23,3-5.35,5.32-7.41,3.86-3.42,8.24-5.42,13.57-4.91,1.88.18,3.8.06,5.7.08-.04.09-.06.21-.13.27-3.01,2.33-5.03,5.22-5.21,9.15-.1.24-.21.47-.31.71,0,1.9.02,3.81.03,5.71l.29.69c.01.26.02.53.03.79.13.37.25.74.38,1.11.12.55.23,1.1.35,1.65.24.36.48.72.72,1.09l1.94,2.89c.15.08.29.16.44.24,0,0-.02-.02-.02-.02.18.22.35.44.53.66.71.62,1.41,1.24,2.12,1.86-.1.86-.21,1.72-.31,2.59-1.24-.19-2.48-.37-3.72-.56-1.14-.65-2.24-1.39-3.43-1.94-1.05-.48-2.2-.74-3.31-1.1Z"/>
  <path class="cls-1" d="M30.33,59.68c1.11.36,2.26.62,3.31,1.1,1.19.54,2.29,1.28,3.43,1.94-1.12,1.9-2.14,3.88-3.46,5.63-.3.39-1.66-.02-2.54-.06-.11-.14-.23-.27-.34-.41-.14-.31-.28-.61-.42-.92-.1-.39-.2-.77-.3-1.16,0-.92,0-1.84,0-2.76.1-.88.19-1.77.29-2.65.01-.24.03-.48.04-.72Z"/>
  <path class="cls-1" d="M61.24,65.87c-.06-.3-.1-.61-.18-.9-.26-.91-1.01-2.12-.68-2.65.44-.69,1.73-.84,2.66-1.21,1.2-.48,2.4-.95,3.6-1.42,0,.25.02.5.02.76.09.74.18,1.48.27,2.22,0,1.11,0,2.22,0,3.33-.22.61-.45,1.22-.67,1.82-.23.26-.45.52-.68.78-.24.1-.47.2-.71.3-.19,0-.39,0-.58-.01-.18-.08-.36-.17-.54-.25-.1-.05-.21-.09-.31-.14-.16-.11-.32-.23-.48-.34-.07-.07-.14-.13-.2-.2-.14-.15-.28-.3-.42-.44,0,0,0,0,0,0-.33-.44-.66-.87-.98-1.31-.04-.11-.08-.22-.12-.33Z"/>
  <path class="cls-1" d="M40.78,63.27c.1-.86.21-1.72.31-2.59,2.23.93,4.45,1.88,6.7,2.77.38.15.93.21,1.29.05,2.3-.96,4.56-2,6.84-3.01.03.92.06,1.85.1,2.77-1.75.27-3.5.76-5.24.75-3.17-.02-6.34-.35-9.52-.56-.16-.01-.32-.12-.47-.19Z"/>
  <path class="cls-1" d="M30.29,60.4c-.1.88-.19,1.77-.29,2.65.1-.88.19-1.77.29-2.65Z"/>
  <path class="cls-1" d="M66.93,62.65c-.09-.74-.18-1.48-.27-2.22.09.74.18,1.48.27,2.22Z"/>
  <path class="cls-1" d="M66.27,67.81c.22-.61.45-1.22.67-1.82-.22.61-.45,1.22-.67,1.82Z"/>
  <path class="cls-1" d="M61.36,66.2c.33.44.66.87.98,1.31-.33-.44-.66-.87-.98-1.31Z"/>
  <path class="cls-1" d="M30,65.8c.1.39.2.77.3,1.16-.1-.39-.2-.77-.3-1.16Z"/>
  <path class="cls-1" d="M67.68,34.01c-.36-.06-.72-.12-1.08-.18.36.06.72.12,1.08.18Z"/>
  <path class="cls-1" d="M64.88,68.89c.24-.1.47-.2.71-.3-.24.1-.47.2-.71.3Z"/>
  <path class="cls-1" d="M63.75,68.63c.18.08.36.17.54.25-.18-.08-.36-.17-.54-.25Z"/>
  <path class="cls-1" d="M62.96,68.15c.16.11.32.23.48.34-.16-.11-.32-.23-.48-.34Z"/>
  <path class="cls-1" d="M30.73,67.88c.11.14.23.27.34.41-.11-.14-.23-.27-.34-.41Z"/>
  <path class="cls-1" d="M62.34,67.51c.14.15.28.3.42.44-.14-.15-.28-.3-.42-.44Z"/>
  <path class="cls-1" d="M70.84,35.11c-.17-.09-.35-.17-.52-.26.17.09.35.17.52.26Z"/>
  <path class="cls-1" d="M68.71,34.27c-.14-.06-.28-.12-.42-.18.14.06.28.12.42.18Z"/>
  <path class="cls-1" d="M60.71,38.5c-1.23-1.53-2.45-3.05-3.68-4.58-5.69-3.74-11.39-3.8-17.09-.04-.04.09-.06.21-.13.27-3.01,2.33-5.03,5.22-5.21,9.15-.1.24-.21.47-.31.71,0,1.9.02,3.81.03,5.71.1.23.2.46.29.69.01.26.02.53.03.79.14.07.28.14.42.21-.01.3-.02.6-.04.9.12.55.23,1.1.35,1.66.24.36.48.72.72,1.09.65.96,1.29,1.93,1.94,2.89.15.08.29.16.44.24,0,0-.02-.02-.02-.02.5.26,1,.52,1.5.78.37.1.74.21,1.11.31.08.02.16.04.25.06,4.87.41,9.32-.81,13.52-3.25.44-.26,1.3.03,1.9.24.72.25,1.38.68,2.07,1.04.52-.41,1.24-.72,1.53-1.26,3.19-5.78,3.2-11.66.39-17.58Z"/>
  <path class="cls-1" d="M41.3,59.33c4.87.41,9.32-.81,13.52-3.25.44-.26,1.3.03,1.9.24.72.25,1.38.68,2.07,1.04-.33.56-.58,1.21-1.02,1.67-.54.57-1.23,1-1.85,1.49-2.28,1.01-4.54,2.04-6.84,3.01-.36.15-.91.1-1.29-.05-2.25-.89-4.47-1.84-6.7-2.77-.71-.62-1.41-1.24-2.12-1.86.33.04.65.08.98.13.37.1.74.21,1.11.31.08.02.16.04.25.06Z"/>
  <path class="cls-1" d="M39.95,58.96c-.32-.04-.65-.08-.98-.13-.18-.22-.35-.44-.53-.66.5.26,1,.52,1.5.78Z"/>
  <path class="cls-1" d="M35.36,53.97c.24.36.48.72.72,1.09-.24-.36-.48-.72-.72-1.09Z"/>
  <path class="cls-1" d="M35.05,51.42c-.01.3-.02.6-.04.9-.13-.37-.25-.74-.38-1.11.14.07.28.14.42.21Z"/>
  <path class="cls-1" d="M34.31,49.72c.1.23.2.46.29.69-.1-.23-.2-.46-.29-.69Z"/>
  <path class="cls-1" d="M34.6,43.3c-.1.24-.21.47-.31.71.1-.24.21-.47.31-.71Z"/>
  <path class="cls-1" d="M38.02,57.95c.15.08.29.16.44.24-.15-.08-.29-.16-.44-.24Z"/>
  <path class="cls-1" d="M41.3,59.33c-.08-.02-.17-.04-.25-.06.08.02.16.04.25.06Z"/>
</svg>